<svg xmlns="http://www.w3.org/2000/svg"  viewBox="0 0 50 50" width="50px" height="50px"><path d="M 35 41 L 29 41 L 29 21.199219 C 29 17.722656 31.722656 15 35.199219 15 L 41.800781 15 C 45.277344 15 48 17.722656 48 21.199219 L 48 27.800781 C 48 31.277344 45.277344 33.996094 41.800781 33.996094 C 41.800781 33.996094 35.066406 34 35 33.996094 Z M 31 39 L 33 39 L 33 32 C 33 32 34.921875 32 35.199219 32 L 41.800781 32 C 44.15625 32 46 30.15625 46 27.800781 L 46 21.199219 C 46 18.84375 44.15625 17 41.800781 17 L 35.199219 17 C 32.84375 17 31 18.84375 31 21.199219 Z M 28 34 L 22 34 L 22 21.199219 C 22 21.050781 21.949219 21 21.800781 21 L 18.011719 21 C 18.023438 21.015625 18 21.09375 18 21.199219 L 18 34 L 12 34 L 12 21.199219 C 12 21.050781 11.949219 21 11.800781 21 L 8.011719 21 C 8.023438 21.015625 8 21.09375 8 21.199219 L 8 34 L 2 34 L 2 21.199219 C 2 17.722656 4.636719 15 8 15 L 11.898438 15.007813 C 13.035156 15.007813 14.109375 15.4375 15.003906 15.992188 C 15.894531 15.4375 16.867188 15 18 15 L 21.800781 15 C 25.277344 15 28 17.722656 28 21.199219 Z M 24 32 L 26 32 L 26 21.199219 C 26 18.84375 24.15625 17 21.800781 17 L 18 17 C 17.054688 17 16.1875 17.304688 15.558594 17.851563 L 14.988281 18.414063 L 14.34375 17.859375 C 13.714844 17.308594 12.847656 17.007813 11.902344 17.007813 L 8 17 C 5.757813 17 4 18.84375 4 21.199219 L 4 32 L 6 32 L 6 21.199219 C 6 19.925781 6.839844 19 8 19 L 11.800781 19 C 13.054688 19 14 19.945313 14 21.199219 L 14 32 L 16 32 L 16 21.199219 C 16 19.925781 16.839844 19 18 19 L 21.800781 19 C 23.054688 19 24 19.945313 24 21.199219 Z M 41.800781 30 L 35.199219 30 C 33.945313 30 33 29.054688 33 27.800781 L 33 21.199219 C 33 19.945313 33.945313 19 35.199219 19 L 41.800781 19 C 43.054688 19 44 19.945313 44 21.199219 L 44 27.800781 C 44 29.054688 43.054688 30 41.800781 30 Z M 35.199219 21 C 35.050781 21 35 21.050781 35 21.199219 L 35 27.800781 C 35 27.949219 35.050781 28 35.199219 28 L 41.800781 28 C 41.949219 28 42 27.949219 42 27.800781 L 42 21.199219 C 42 21.050781 41.949219 21 41.800781 21 Z"/></svg>